<mxfile host="app.diagrams.net" agent="Mozilla/5.0 (Windows NT 10.0; Win64; x64; rv:133.0) Gecko/20100101 Firefox/133.0" version="26.0.3">
  <diagram name="第 1 页" id="khj54ka_gTwthhvUTzhC">
    <mxGraphModel dx="794" dy="467" grid="1" gridSize="10" guides="1" tooltips="1" connect="1" arrows="1" fold="1" page="1" pageScale="1" pageWidth="827" pageHeight="1169" math="0" shadow="0">
      <root>
        <mxCell id="0" />
        <mxCell id="1" parent="0" />
        <mxCell id="VHOiRZNkyFGyYkg_aRwI-41" value="" style="rounded=1;whiteSpace=wrap;html=1;fillColor=#f5f5f5;fontColor=#333333;strokeColor=#666666;" vertex="1" parent="1">
          <mxGeometry x="640" y="200" width="210" height="210" as="geometry" />
        </mxCell>
        <mxCell id="VHOiRZNkyFGyYkg_aRwI-40" value="" style="rounded=1;whiteSpace=wrap;html=1;fillColor=#f5f5f5;fontColor=#333333;strokeColor=#666666;" vertex="1" parent="1">
          <mxGeometry x="430" y="200" width="210" height="210" as="geometry" />
        </mxCell>
        <mxCell id="VHOiRZNkyFGyYkg_aRwI-39" value="" style="rounded=1;whiteSpace=wrap;html=1;fillColor=#f5f5f5;fontColor=#333333;strokeColor=#666666;" vertex="1" parent="1">
          <mxGeometry x="220" y="200" width="210" height="210" as="geometry" />
        </mxCell>
        <mxCell id="VHOiRZNkyFGyYkg_aRwI-22" style="edgeStyle=orthogonalEdgeStyle;rounded=0;orthogonalLoop=1;jettySize=auto;html=1;entryX=0.5;entryY=0;entryDx=0;entryDy=0;" edge="1" parent="1" source="VHOiRZNkyFGyYkg_aRwI-1" target="VHOiRZNkyFGyYkg_aRwI-13">
          <mxGeometry relative="1" as="geometry" />
        </mxCell>
        <mxCell id="VHOiRZNkyFGyYkg_aRwI-1" value="协程" style="ellipse;whiteSpace=wrap;html=1;aspect=fixed;fillColor=#dae8fc;strokeColor=#6c8ebf;" vertex="1" parent="1">
          <mxGeometry x="370" y="210" width="50" height="50" as="geometry" />
        </mxCell>
        <mxCell id="VHOiRZNkyFGyYkg_aRwI-21" style="edgeStyle=orthogonalEdgeStyle;rounded=0;orthogonalLoop=1;jettySize=auto;html=1;entryX=0.5;entryY=0;entryDx=0;entryDy=0;" edge="1" parent="1" source="VHOiRZNkyFGyYkg_aRwI-2" target="VHOiRZNkyFGyYkg_aRwI-12">
          <mxGeometry relative="1" as="geometry" />
        </mxCell>
        <mxCell id="VHOiRZNkyFGyYkg_aRwI-2" value="协程" style="ellipse;whiteSpace=wrap;html=1;aspect=fixed;fillColor=#dae8fc;strokeColor=#6c8ebf;" vertex="1" parent="1">
          <mxGeometry x="300" y="210" width="50" height="50" as="geometry" />
        </mxCell>
        <mxCell id="VHOiRZNkyFGyYkg_aRwI-20" style="edgeStyle=orthogonalEdgeStyle;rounded=0;orthogonalLoop=1;jettySize=auto;html=1;entryX=0.5;entryY=0;entryDx=0;entryDy=0;" edge="1" parent="1" source="VHOiRZNkyFGyYkg_aRwI-3" target="VHOiRZNkyFGyYkg_aRwI-11">
          <mxGeometry relative="1" as="geometry" />
        </mxCell>
        <mxCell id="VHOiRZNkyFGyYkg_aRwI-3" value="协程" style="ellipse;whiteSpace=wrap;html=1;aspect=fixed;fillColor=#dae8fc;strokeColor=#6c8ebf;" vertex="1" parent="1">
          <mxGeometry x="230" y="210" width="50" height="50" as="geometry" />
        </mxCell>
        <mxCell id="VHOiRZNkyFGyYkg_aRwI-4" value="协程" style="ellipse;whiteSpace=wrap;html=1;aspect=fixed;fillColor=#dae8fc;strokeColor=#6c8ebf;" vertex="1" parent="1">
          <mxGeometry x="580" y="210" width="50" height="50" as="geometry" />
        </mxCell>
        <mxCell id="VHOiRZNkyFGyYkg_aRwI-5" value="协程" style="ellipse;whiteSpace=wrap;html=1;aspect=fixed;fillColor=#dae8fc;strokeColor=#6c8ebf;" vertex="1" parent="1">
          <mxGeometry x="510" y="210" width="50" height="50" as="geometry" />
        </mxCell>
        <mxCell id="VHOiRZNkyFGyYkg_aRwI-6" value="协程" style="ellipse;whiteSpace=wrap;html=1;aspect=fixed;fillColor=#dae8fc;strokeColor=#6c8ebf;" vertex="1" parent="1">
          <mxGeometry x="440" y="210" width="50" height="50" as="geometry" />
        </mxCell>
        <mxCell id="VHOiRZNkyFGyYkg_aRwI-7" value="协程" style="ellipse;whiteSpace=wrap;html=1;aspect=fixed;fillColor=#dae8fc;strokeColor=#6c8ebf;" vertex="1" parent="1">
          <mxGeometry x="790" y="210" width="50" height="50" as="geometry" />
        </mxCell>
        <mxCell id="VHOiRZNkyFGyYkg_aRwI-8" value="协程" style="ellipse;whiteSpace=wrap;html=1;aspect=fixed;fillColor=#dae8fc;strokeColor=#6c8ebf;" vertex="1" parent="1">
          <mxGeometry x="720" y="210" width="50" height="50" as="geometry" />
        </mxCell>
        <mxCell id="VHOiRZNkyFGyYkg_aRwI-9" value="协程" style="ellipse;whiteSpace=wrap;html=1;aspect=fixed;fillColor=#dae8fc;strokeColor=#6c8ebf;" vertex="1" parent="1">
          <mxGeometry x="650" y="210" width="50" height="50" as="geometry" />
        </mxCell>
        <mxCell id="VHOiRZNkyFGyYkg_aRwI-10" value="" style="endArrow=none;html=1;rounded=0;" edge="1" parent="1">
          <mxGeometry width="50" height="50" relative="1" as="geometry">
            <mxPoint x="120" y="290" as="sourcePoint" />
            <mxPoint x="880" y="290" as="targetPoint" />
          </mxGeometry>
        </mxCell>
        <mxCell id="VHOiRZNkyFGyYkg_aRwI-11" value="线程" style="ellipse;whiteSpace=wrap;html=1;aspect=fixed;fillColor=#f8cecc;strokeColor=#b85450;" vertex="1" parent="1">
          <mxGeometry x="230" y="320" width="50" height="50" as="geometry" />
        </mxCell>
        <mxCell id="VHOiRZNkyFGyYkg_aRwI-12" value="线程" style="ellipse;whiteSpace=wrap;html=1;aspect=fixed;fillColor=#f8cecc;strokeColor=#b85450;" vertex="1" parent="1">
          <mxGeometry x="300" y="320" width="50" height="50" as="geometry" />
        </mxCell>
        <mxCell id="VHOiRZNkyFGyYkg_aRwI-13" value="线程" style="ellipse;whiteSpace=wrap;html=1;aspect=fixed;fillColor=#f8cecc;strokeColor=#b85450;" vertex="1" parent="1">
          <mxGeometry x="370" y="320" width="50" height="50" as="geometry" />
        </mxCell>
        <mxCell id="VHOiRZNkyFGyYkg_aRwI-14" value="线程" style="ellipse;whiteSpace=wrap;html=1;aspect=fixed;fillColor=#f8cecc;strokeColor=#b85450;" vertex="1" parent="1">
          <mxGeometry x="510" y="320" width="50" height="50" as="geometry" />
        </mxCell>
        <mxCell id="VHOiRZNkyFGyYkg_aRwI-15" value="线程" style="ellipse;whiteSpace=wrap;html=1;aspect=fixed;fillColor=#f8cecc;strokeColor=#b85450;" vertex="1" parent="1">
          <mxGeometry x="680" y="320" width="50" height="50" as="geometry" />
        </mxCell>
        <mxCell id="VHOiRZNkyFGyYkg_aRwI-16" value="线程" style="ellipse;whiteSpace=wrap;html=1;aspect=fixed;fillColor=#f8cecc;strokeColor=#b85450;" vertex="1" parent="1">
          <mxGeometry x="760" y="320" width="50" height="50" as="geometry" />
        </mxCell>
        <mxCell id="VHOiRZNkyFGyYkg_aRwI-23" value="" style="endArrow=none;html=1;rounded=0;exitX=0.5;exitY=1;exitDx=0;exitDy=0;" edge="1" parent="1" source="VHOiRZNkyFGyYkg_aRwI-6">
          <mxGeometry width="50" height="50" relative="1" as="geometry">
            <mxPoint x="540" y="290" as="sourcePoint" />
            <mxPoint x="530" y="290" as="targetPoint" />
          </mxGeometry>
        </mxCell>
        <mxCell id="VHOiRZNkyFGyYkg_aRwI-24" value="" style="endArrow=none;html=1;rounded=0;entryX=0.5;entryY=1;entryDx=0;entryDy=0;" edge="1" parent="1" target="VHOiRZNkyFGyYkg_aRwI-5">
          <mxGeometry width="50" height="50" relative="1" as="geometry">
            <mxPoint x="535" y="290" as="sourcePoint" />
            <mxPoint x="590" y="240" as="targetPoint" />
          </mxGeometry>
        </mxCell>
        <mxCell id="VHOiRZNkyFGyYkg_aRwI-25" value="" style="endArrow=none;html=1;rounded=0;entryX=0.5;entryY=1;entryDx=0;entryDy=0;" edge="1" parent="1" target="VHOiRZNkyFGyYkg_aRwI-4">
          <mxGeometry width="50" height="50" relative="1" as="geometry">
            <mxPoint x="540" y="290" as="sourcePoint" />
            <mxPoint x="580" y="300" as="targetPoint" />
          </mxGeometry>
        </mxCell>
        <mxCell id="VHOiRZNkyFGyYkg_aRwI-27" value="" style="endArrow=classic;html=1;rounded=0;entryX=0.5;entryY=0;entryDx=0;entryDy=0;" edge="1" parent="1" target="VHOiRZNkyFGyYkg_aRwI-14">
          <mxGeometry width="50" height="50" relative="1" as="geometry">
            <mxPoint x="535" y="290" as="sourcePoint" />
            <mxPoint x="580" y="260" as="targetPoint" />
          </mxGeometry>
        </mxCell>
        <mxCell id="VHOiRZNkyFGyYkg_aRwI-28" value="" style="endArrow=none;html=1;rounded=0;exitX=0.5;exitY=1;exitDx=0;exitDy=0;" edge="1" parent="1" source="VHOiRZNkyFGyYkg_aRwI-9">
          <mxGeometry width="50" height="50" relative="1" as="geometry">
            <mxPoint x="530" y="310" as="sourcePoint" />
            <mxPoint x="740" y="290" as="targetPoint" />
          </mxGeometry>
        </mxCell>
        <mxCell id="VHOiRZNkyFGyYkg_aRwI-30" value="" style="endArrow=none;html=1;rounded=0;entryX=0.5;entryY=1;entryDx=0;entryDy=0;" edge="1" parent="1" target="VHOiRZNkyFGyYkg_aRwI-8">
          <mxGeometry width="50" height="50" relative="1" as="geometry">
            <mxPoint x="745" y="290" as="sourcePoint" />
            <mxPoint x="580" y="260" as="targetPoint" />
          </mxGeometry>
        </mxCell>
        <mxCell id="VHOiRZNkyFGyYkg_aRwI-31" value="" style="endArrow=none;html=1;rounded=0;entryX=0.5;entryY=1;entryDx=0;entryDy=0;" edge="1" parent="1" target="VHOiRZNkyFGyYkg_aRwI-7">
          <mxGeometry width="50" height="50" relative="1" as="geometry">
            <mxPoint x="750" y="290" as="sourcePoint" />
            <mxPoint x="580" y="260" as="targetPoint" />
          </mxGeometry>
        </mxCell>
        <mxCell id="VHOiRZNkyFGyYkg_aRwI-32" value="" style="endArrow=classic;html=1;rounded=0;entryX=0.5;entryY=0;entryDx=0;entryDy=0;" edge="1" parent="1" target="VHOiRZNkyFGyYkg_aRwI-15">
          <mxGeometry width="50" height="50" relative="1" as="geometry">
            <mxPoint x="740" y="290" as="sourcePoint" />
            <mxPoint x="580" y="260" as="targetPoint" />
          </mxGeometry>
        </mxCell>
        <mxCell id="VHOiRZNkyFGyYkg_aRwI-33" value="" style="endArrow=classic;html=1;rounded=0;entryX=0.5;entryY=0;entryDx=0;entryDy=0;" edge="1" parent="1" target="VHOiRZNkyFGyYkg_aRwI-16">
          <mxGeometry width="50" height="50" relative="1" as="geometry">
            <mxPoint x="750" y="290" as="sourcePoint" />
            <mxPoint x="580" y="230" as="targetPoint" />
          </mxGeometry>
        </mxCell>
        <mxCell id="VHOiRZNkyFGyYkg_aRwI-34" value="&lt;font style=&quot;font-size: 16px;&quot;&gt;1-1&lt;/font&gt;" style="text;html=1;align=center;verticalAlign=middle;whiteSpace=wrap;rounded=0;" vertex="1" parent="1">
          <mxGeometry x="295" y="380" width="60" height="30" as="geometry" />
        </mxCell>
        <mxCell id="VHOiRZNkyFGyYkg_aRwI-35" value="&lt;font style=&quot;font-size: 16px;&quot;&gt;n-1&lt;/font&gt;" style="text;html=1;align=center;verticalAlign=middle;whiteSpace=wrap;rounded=0;" vertex="1" parent="1">
          <mxGeometry x="500" y="380" width="60" height="30" as="geometry" />
        </mxCell>
        <mxCell id="VHOiRZNkyFGyYkg_aRwI-36" value="&lt;font style=&quot;font-size: 16px;&quot;&gt;n-m&lt;/font&gt;" style="text;html=1;align=center;verticalAlign=middle;whiteSpace=wrap;rounded=0;" vertex="1" parent="1">
          <mxGeometry x="715" y="380" width="60" height="30" as="geometry" />
        </mxCell>
        <mxCell id="VHOiRZNkyFGyYkg_aRwI-37" value="&lt;font style=&quot;font-size: 16px;&quot;&gt;user space&lt;/font&gt;" style="text;html=1;align=center;verticalAlign=middle;whiteSpace=wrap;rounded=0;" vertex="1" parent="1">
          <mxGeometry x="125" y="250" width="90" height="30" as="geometry" />
        </mxCell>
        <mxCell id="VHOiRZNkyFGyYkg_aRwI-38" value="&lt;font style=&quot;font-size: 16px;&quot;&gt;kernel space&lt;/font&gt;" style="text;html=1;align=center;verticalAlign=middle;whiteSpace=wrap;rounded=0;" vertex="1" parent="1">
          <mxGeometry x="120" y="300" width="100" height="30" as="geometry" />
        </mxCell>
      </root>
    </mxGraphModel>
  </diagram>
</mxfile>
